<?xml version="1.0" encoding="utf-8"?>
<svg width="256px" height="256px" version="1.1" viewBox="0 0 300 300" xmlns="http://www.w3.org/2000/svg" shape-rendering="geometricPrecision" image-rendering="optimizeQuality">
  <g transform="translate(-36.3 78.645)">
    <g>
      <path d="m105.5-77.645h161.5c37.5 0 68.33 30.83 68.33 68.33v161.5c0 37.5-30.83 68.33-68.33 68.33h-161.5c-37.5 0-68.33-30.83-68.33-68.33v-161.5c0-37.5 30.83-68.33 68.33-68.33z" fill="#222222" style="mix-blend-mode:normal"/>
    </g>
  </g>
  <g transform="matrix(1.008717, 0, 0, 1.008717, -32.661137, 71.303223)">
    <path d="m70.111-29.05 24.276 24.365-24.276 25.177" fill="none" stroke="#bbe1fa" stroke-width="8.4836"/>
    <path d="m112.57 20.492h47.285" fill="none" stroke="#bbe1fa" stroke-width="8.4836"/>
    <path transform="matrix(.26458 0 0 .26458 36.3 -78.645)" d="m685.99 454.63c-37.341 4.8072-66.902 34.421-71.642 71.771l-0.19852 1.8428-0.15427 2.0216-0.11002 2.1558-0.0657 2.2452-0.0214 2.29 0.0229 2.2899 0.0673 2.2452 0.11169 2.1557 0.15611 2.0214 0.20055 1.8425c1.7436 13.603 6.8332 26.568 14.81 37.724l0.94411 1.5044 0.78847 1.641 0.62455 1.746 0.45232 1.8192 0.27181 1.8607 0.083 1.8704-0.11411 1.8485-0.31952 1.7948-0.53321 1.7094-0.7552 1.5922-130.62 228.95-0.98574 1.4576-1.1984 1.3211-1.3798 1.1759-1.5298 1.0222-1.6484 0.85984-1.7358 0.6889-1.7918 0.50935-1.8165 0.32121-1.8098 0.12447-1.7718-0.0809-1.5652-0.14057-1.7571-0.10921-1.908-0.0763-2.0181-0.0418-2.0873-6e-3 -2.1156 0.0319-2.103 0.0711-2.0494 0.11187-1.955 0.1542-1.8197 0.19811c-37.406 4.7463-67.045 34.386-71.792 71.792l-0.19851 1.8428-0.1544 2.0216-0.11028 2.1558-0.0661 2.2452-0.022 2.29 0.0221 2.29 0.0662 2.2452 0.11033 2.1558 0.15444 2.0216 0.19857 1.8428c4.7471 37.405 34.386 67.044 71.791 71.79l1.8428 0.1985 2.0216 0.1543 2.1558 0.1102 2.2452 0.066 2.29 0.022 2.29-0.023 2.2452-0.067 2.1557-0.1111 2.0215-0.1554 1.8426-0.1998c29.818-3.807 55.324-23.541 66.496-51.448l0.75841-1.5991 0.95782-1.5283 1.1349-1.4345 1.2898-1.3178 1.4223-1.1781 1.5325-1.0154 1.6204-0.82977 1.686-0.62114 1.7294-0.38953 1.7504-0.13495h259.92l1.7476 0.13562 1.7213 0.39153 1.6732 0.62446 1.6033 0.83442 1.5115 1.0214 1.3979 1.1854 1.2625 1.3264 1.1052 1.4444 0.92615 1.5395 0.72526 1.6115c10.809 28.703 36.694 49.16 67.118 53.042l1.8426 0.1997 2.0215 0.1553 2.1557 0.111 2.2452 0.067 2.2899 0.022 2.29-0.022 2.2452-0.066 2.1558-0.1102 2.0216-0.1544 1.8428-0.1985c37.404-4.747 67.043-34.385 71.79-71.79l0.1985-1.8428 0.1545-2.0216 0.1103-2.1558 0.066-2.2452 0.022-2.29-0.022-2.29-0.066-2.2452-0.1103-2.1558-0.1545-2.0216-0.1985-1.8428c-4.747-37.404-34.385-67.043-71.79-71.79l-1.8428-0.19851-2.0216-0.15426-2.1558-0.11-2.2452-0.0657-2.29-0.0214-2.2899 0.0229-2.2452 0.0673-2.1557 0.1117-2.0214 0.15611-1.8425 0.20054-1.5347 0.0816-1.5848-0.13276-1.6064-0.33647-1.5997-0.52955-1.5644-0.71202-1.5008-0.88385-1.4087-1.0451-1.2881-1.1957-1.1392-1.3356-0.96174-1.465-130.39-230.44-0.74957-1.5949-0.52721-1.7113-0.31326-1.796-0.10771-1.849 0.0894-1.8703 0.27818-1.8599 0.45853-1.8178 0.63045-1.744 0.79399-1.6384 0.94912-1.5012c8.068-11.206 13.215-24.253 14.97-37.949l0.20052-1.8425 0.15607-2.0214 0.11166-2.1557 0.0673-2.2452 0.0229-2.2899-0.0214-2.29-0.0657-2.2452-0.11002-2.1558-0.15428-2.0216-0.19852-1.8428c-4.747-37.404-34.385-67.043-71.79-71.79l-1.71-0.19731-1.6362-0.15422-1.5368-0.11638-1.4117-0.0838-1.261-0.0565-1.0847-0.0344-0.88279-0.0176-0.65525-6e-3 -0.4021 2.2e-4 -0.12333 1e-3zm-0.59087 164.57c0.24614 0.0338 0.49242 0.0665 0.73885 0.0981l1.8425 0.20065 2.0214 0.15608 2.1557 0.11149 2.2452 0.0669 2.2899 0.0223 2.2899-0.0222 2.2452-0.0668 2.1557-0.11141 2.0214-0.15599 1.8425-0.20057c0.15546-0.0199 0.31085-0.0403 0.46619-0.0611l1.7654-0.12588 1.802 0.0824 1.8077 0.28254 1.7823 0.47461 1.726 0.65859 1.6386 0.83447 1.5203 1.0023 1.371 1.162 1.1908 1.3136 0.9795 1.4571 129.87 229.51 0.74724 1.5926 0.52045 1.7048 0.30234 1.7858 0.0929 1.8354-0.10779 1.8539-0.2998 1.841-0.48314 1.797-0.65777 1.7216-0.8237 1.615-0.98095 1.4772c-3.2381 4.2837-6.053 8.8716-8.405 13.699l-0.87267 1.5499-1.067 1.4839-1.2375 1.3951-1.384 1.2833-1.5065 1.1487-1.6051 0.99113-1.6798 0.81071-1.7305 0.60742-1.7573 0.38123-1.7601 0.13216h-263.21l-1.7573-0.13305-1.7492-0.38385-1.7177-0.61174-1.6627-0.81669-1.5842-0.99873-1.4823-1.1578-1.3569-1.294-1.208-1.4073-1.0357-1.4976-0.83993-1.565c-2.5352-5.4939-5.6637-10.694-9.3294-15.508l-0.98529-1.4733-0.82693-1.6108-0.65988-1.7171-0.48417-1.7923-0.29979-1.8363-0.10673-1.8492 0.095-1.8309 0.30539-1.7815 0.52445-1.701 0.75219-1.5893 129.94-227.76 0.98467-1.4536 1.1954-1.3094 1.3752-1.1572 1.5239-0.99702 1.6416-0.82885 1.7283-0.6527 1.784-0.46854 1.8087-0.27641 1.8024-0.0763z" fill="#bbe1fa" stroke-width="0"/>
  </g>
</svg>
