<?xml version="1.0" encoding="UTF-8" standalone="no"?>
<svg
   xmlns:dc="http://purl.org/dc/elements/1.1/"
   xmlns:cc="http://creativecommons.org/ns#"
   xmlns:rdf="http://www.w3.org/1999/02/22-rdf-syntax-ns#"
   xmlns:svg="http://www.w3.org/2000/svg"
   xmlns="http://www.w3.org/2000/svg"
   xmlns:xlink="http://www.w3.org/1999/xlink"
   xmlns:sodipodi="http://sodipodi.sourceforge.net/DTD/sodipodi-0.dtd"
   xmlns:inkscape="http://www.inkscape.org/namespaces/inkscape"
   width="300mm"
   height="300mm"
   viewBox="0 0 300 300"
   version="1.1"
   id="svg8"
   inkscape:version="1.0.2 (e86c870879, 2021-01-15)"
   sodipodi:docname="appicon.svg"
   inkscape:export-xdpi="84.666664"
   inkscape:export-ydpi="84.666664">
  <defs
     id="defs2">
    <linearGradient
       inkscape:collect="always"
       id="linearGradient986">
      <stop
         style="stop-color:#000000;stop-opacity:1;"
         offset="0"
         id="stop982" />
      <stop
         style="stop-color:#000000;stop-opacity:0"
         offset="1"
         id="stop984" />
    </linearGradient>
    <inkscape:path-effect
       effect="fillet_chamfer"
       id="path-effect964"
       is_visible="true"
       lpeversion="1"
       satellites_param="C,0,0,1,0,10.583333,0,10 @ C,0,0,1,0,10.583333,0,10 @ C,0,0,1,0,10.583333,0,10 @ C,0,0,1,0,10.583333,0,10 @ C,0,0,1,0,10.583333,0,10 @ C,0,0,1,0,10.583333,0,10 @ C,0,0,1,0,10.583333,0,10 @ C,0,0,1,0,10.583333,0,10 @ C,0,0,1,0,10.583333,0,10 @ C,0,0,1,0,10.583333,0,10 @ C,0,0,1,0,10.583333,0,10 @ C,0,0,1,0,10.583333,0,10 @ C,0,0,1,0,10.583333,0,10 @ C,0,0,1,0,10.583333,0,10 @ C,0,0,1,0,10.583333,0,10 @ C,0,0,1,0,10.583333,0,10 | C,0,0,1,0,10.583333,0,10 @ C,0,0,1,0,10.583333,0,10 @ C,0,0,1,0,10.583333,0,10 @ C,0,0,1,0,10.583333,0,10 @ C,0,0,1,0,10.583333,0,10 @ C,0,0,1,0,10.583333,0,10 @ C,0,0,1,0,10.583333,0,10"
       unit="px"
       method="bezier"
       mode="F"
       radius="40"
       chamfer_steps="10"
       flexible="false"
       use_knot_distance="true"
       apply_no_radius="true"
       apply_with_radius="true"
       only_selected="false"
       hide_knots="false" />
    <inkscape:path-effect
       effect="fillet_chamfer"
       id="path-effect886"
       is_visible="true"
       lpeversion="1"
       satellites_param="F,0,0,1,0,21.166667,0,1 @ F,0,0,1,0,21.166667,0,1 @ F,0,0,1,0,21.166667,0,1 @ F,0,0,1,0,21.166667,0,1"
       unit="px"
       method="auto"
       mode="F"
       radius="80"
       chamfer_steps="1"
       flexible="false"
       use_knot_distance="true"
       apply_no_radius="true"
       apply_with_radius="true"
       only_selected="false"
       hide_knots="false" />
    <inkscape:path-effect
       effect="fillet_chamfer"
       id="path-effect835"
       is_visible="true"
       lpeversion="1"
       satellites_param="F,0,0,1,0,26.458333,0,1 @ F,0,0,1,0,26.458333,0,1 @ F,0,0,1,0,26.458333,0,1 @ F,0,0,1,0,26.458333,0,1"
       unit="px"
       method="auto"
       mode="F"
       radius="100"
       chamfer_steps="1"
       flexible="false"
       use_knot_distance="true"
       apply_no_radius="true"
       apply_with_radius="true"
       only_selected="false"
       hide_knots="false" />
    <filter
       inkscape:label="Duochrome"
       inkscape:menu="Morphology"
       inkscape:menu-tooltip="Creates a black light inside and outside"
       style="color-interpolation-filters:sRGB;"
       id="filter1331"
       height="1.5"
       width="1.5"
       y="-0.25"
       x="-0.25">
      <feColorMatrix
         values="1 0 0 0 0 0 1 0 0 0 0 0 1 0 0 0 0 0 1 0 "
         result="fbSourceGraphic"
         id="feColorMatrix1315" />
      <feGaussianBlur
         stdDeviation="3"
         result="result1"
         id="feGaussianBlur1317" />
      <feOffset
         dx="2"
         dy="2"
         result="result6"
         id="feOffset1319" />
      <feComposite
         k2="2"
         operator="in"
         result="result2"
         in="result6"
         in2="result1"
         id="feComposite1321" />
      <feColorMatrix
         values="110"
         result="result3"
         type="hueRotate"
         id="feColorMatrix1323" />
      <feBlend
         mode="screen"
         in="result2"
         in2="result3"
         result="result4"
         id="feBlend1325" />
      <feConvolveMatrix
         order="3 3"
         kernelMatrix="-2 0 2 0 4 0 2 0 2"
         divisor="2"
         bias="0"
         targetX="0"
         in="result4"
         result="result5"
         id="feConvolveMatrix1327" />
      <feComposite
         operator="atop"
         in="result2"
         in2="result5"
         id="feComposite1329"
         result="fbSourceGraphic" />
      <feColorMatrix
         result="fbSourceGraphicAlpha"
         in="fbSourceGraphic"
         values="0 0 0 -1 0 0 0 0 -1 0 0 0 0 -1 0 0 0 0 1 0"
         id="feColorMatrix1333" />
      <feGaussianBlur
         id="feGaussianBlur1335"
         stdDeviation="5"
         in="fbSourceGraphicAlpha"
         result="result1" />
      <feComposite
         in2="result1"
         id="feComposite1337"
         operator="arithmetic"
         k2="3.2"
         k1="-1"
         k4="-2"
         result="result3" />
      <feColorMatrix
         id="feColorMatrix1339"
         values="1 0 0 0 0 0 1 0 0 0 0 0 1 0 0 0 0 0 10 0 "
         result="result2" />
      <feComposite
         in2="result2"
         id="feComposite1341"
         result="fbSourceGraphic"
         in="fbSourceGraphic"
         operator="out" />
      <feBlend
         in2="fbSourceGraphic"
         id="feBlend1343"
         mode="multiply"
         in="result1"
         result="result91" />
      <feBlend
         in2="result91"
         id="feBlend1345"
         mode="screen"
         in="fbSourceGraphic"
         result="fbSourceGraphic" />
      <feColorMatrix
         result="fbSourceGraphicAlpha"
         in="fbSourceGraphic"
         values="0 0 0 -1 0 0 0 0 -1 0 0 0 0 -1 0 0 0 0 1 0"
         id="feColorMatrix3749" />
      <feColorMatrix
         id="feColorMatrix3751"
         type="hueRotate"
         values="0"
         result="colormatrix1"
         in="fbSourceGraphic" />
      <feColorMatrix
         id="feColorMatrix3753"
         in="colormatrix1"
         type="matrix"
         values="1 0 0 0 0 1 0 0 0 0 1 0 0 0 0 0 0 0 0 1 "
         result="colormatrix2" />
      <feColorMatrix
         id="feColorMatrix3755"
         in="colormatrix1"
         type="matrix"
         values="0 1 0 0 0 0 1 0 0 0 0 1 0 0 0 0 0 0 0 1 "
         result="colormatrix3" />
      <feColorMatrix
         id="feColorMatrix3757"
         in="colormatrix1"
         type="matrix"
         values="0 0 1 0 0 0 0 1 0 0 0 0 1 0 0 0 0 0 0 1 "
         result="colormatrix4" />
      <feBlend
         in2="colormatrix3"
         id="feBlend3759"
         in="colormatrix2"
         mode="darken"
         result="blend1" />
      <feBlend
         in2="colormatrix4"
         id="feBlend3761"
         in="blend1"
         mode="darken"
         result="blend2" />
      <feBlend
         in2="colormatrix3"
         id="feBlend3763"
         in="colormatrix2"
         mode="lighten"
         result="blend3" />
      <feBlend
         in2="colormatrix4"
         id="feBlend3765"
         in="blend3"
         mode="lighten"
         result="blend4" />
      <feComponentTransfer
         id="feComponentTransfer3767"
         in="blend4"
         result="componentTransfer">
        <feFuncR
           id="feFuncR3769"
           type="linear"
           slope="0" />
      </feComponentTransfer>
      <feBlend
         in2="componentTransfer"
         id="feBlend3771"
         in="blend2"
         mode="multiply"
         result="blend5" />
      <feColorMatrix
         id="feColorMatrix3773"
         in="blend5"
         type="matrix"
         values="-1 1 0 0 0 -1 1 0 0 0 -1 1 0 0 0 0 0 0 0 1 "
         result="colormatrix5" />
      <feFlood
         id="feFlood3775"
         flood-opacity="1"
         flood-color="rgb(251,163,0)"
         result="flood" />
      <feComposite
         in2="flood"
         id="feComposite3777"
         in="colormatrix5"
         operator="arithmetic"
         k1="1"
         result="composite1" />
      <feGaussianBlur
         id="feGaussianBlur3779"
         stdDeviation="1.52035"
         result="blur" />
      <feBlend
         in2="blur"
         id="feBlend3781"
         mode="darken"
         result="blend6" />
      <feComposite
         in2="blend6"
         id="feComposite3783"
         in="blend2"
         operator="arithmetic"
         k1="10"
         k2="1"
         k3="5.42161"
         k4="0"
         result="composite2" />
      <feComposite
         in2="fbSourceGraphic"
         id="feComposite3785"
         operator="in"
         result="fbSourceGraphic" />
      <feColorMatrix
         result="fbSourceGraphicAlpha"
         in="fbSourceGraphic"
         values="0 0 0 -1 0 0 0 0 -1 0 0 0 0 -1 0 0 0 0 1 0"
         id="feColorMatrix1412" />
      <feColorMatrix
         id="feColorMatrix1414"
         type="luminanceToAlpha"
         result="colormatrix1"
         in="fbSourceGraphic" />
      <feFlood
         id="feFlood1416"
         flood-opacity="1"
         flood-color="rgb(81,81,245)"
         result="flood1" />
      <feComposite
         in2="colormatrix1"
         id="feComposite1418"
         operator="out"
         result="composite1" />
      <feFlood
         id="feFlood1420"
         flood-opacity="1"
         flood-color="rgb(255,255,0)"
         result="flood2" />
      <feComposite
         in2="colormatrix1"
         id="feComposite1422"
         result="composite2"
         operator="in" />
      <feComposite
         in2="composite1"
         id="feComposite1424"
         in="composite2"
         k2="1"
         k3="1"
         operator="arithmetic"
         result="composite3" />
      <feColorMatrix
         id="feColorMatrix1426"
         in="composite3"
         type="matrix"
         values="2 -1 0 0 0 0 2 -1 0 0 -1 0 2 0 0 0 0 0 1 0 "
         result="colormatrix2" />
      <feComposite
         in2="composite3"
         id="feComposite1428"
         in="colormatrix2"
         operator="arithmetic"
         k2="0.964783"
         result="composite4" />
      <feBlend
         in2="composite3"
         id="feBlend1430"
         in="composite4"
         mode="normal"
         result="blend" />
      <feComposite
         in2="fbSourceGraphic"
         id="feComposite1432"
         operator="in" />
    </filter>
    <linearGradient
       inkscape:collect="always"
       xlink:href="#linearGradient986"
       id="linearGradient988"
       x1="184.38727"
       y1="305.1351"
       x2="184.38727"
       y2="23.832148"
       gradientUnits="userSpaceOnUse" />
  </defs>
  <sodipodi:namedview
     id="base"
     pagecolor="#ffffff"
     bordercolor="#666666"
     borderopacity="1.0"
     inkscape:pageopacity="0.0"
     inkscape:pageshadow="2"
     inkscape:zoom="0.099719657"
     inkscape:cx="244.23765"
     inkscape:cy="808.88867"
     inkscape:document-units="mm"
     inkscape:current-layer="layer1"
     inkscape:document-rotation="0"
     showgrid="false"
     fit-margin-top="0"
     fit-margin-left="0"
     fit-margin-right="0"
     fit-margin-bottom="0"
     showguides="true"
     inkscape:guide-bbox="true"
     inkscape:window-width="1920"
     inkscape:window-height="1025"
     inkscape:window-x="0"
     inkscape:window-y="31"
     inkscape:window-maximized="1"
     showborder="false" />
  <metadata
     id="metadata5">
    <rdf:RDF>
      <cc:Work
         rdf:about="">
        <dc:format>image/svg+xml</dc:format>
        <dc:type
           rdf:resource="http://purl.org/dc/dcmitype/StillImage" />
        <dc:title></dc:title>
      </cc:Work>
    </rdf:RDF>
  </metadata>
  <g
     inkscape:label="Layer 1"
     inkscape:groupmode="layer"
     id="layer1"
     transform="translate(-36.300113,78.644826)">
    <path
       style="display:inline;opacity:1;mix-blend-mode:normal;fill:#333333;fill-opacity:1;stroke:#1b262c;stroke-width:11.1262;stroke-linejoin:round;stroke-miterlimit:4;stroke-dasharray:none;stroke-dashoffset:0;stroke-opacity:1"
       id="rect833"
       width="288.87381"
       height="288.87381"
       x="41.863213"
       y="-73.081734"
       inkscape:path-effect="#path-effect835"
       d="M 68.321546,-73.081734 H 304.27869 a 26.458333,26.458333 45 0 1 26.45833,26.458333 V 189.33374 a 26.458333,26.458333 135 0 1 -26.45833,26.45834 H 68.321546 A 26.458333,26.458333 45 0 1 41.863213,189.33374 V -46.623401 a 26.458333,26.458333 135 0 1 26.458333,-26.458333 z"
       sodipodi:type="rect" />
    <path
       style="display:inline;fill:none;stroke:#bbe1fa;stroke-width:8.48365;stroke-linecap:butt;stroke-linejoin:miter;stroke-miterlimit:4;stroke-dasharray:none;stroke-opacity:1"
       d="M 63.11103,-29.05025 87.387037,-4.6852386 63.11103,20.491944"
       id="path854" />
    <path
       style="display:inline;fill:none;stroke:#bbe1fa;stroke-width:9.07797;stroke-linecap:butt;stroke-linejoin:miter;stroke-miterlimit:4;stroke-dasharray:none;stroke-opacity:1"
       d="m 105.57386,20.491944 h 47.28461"
       id="path856" />
    <path
       style="display:inline;opacity:1;fill:url(#linearGradient988);fill-opacity:1;stroke:#bbe1fa;stroke-width:2;stroke-linejoin:round;stroke-miterlimit:4;stroke-dasharray:none;stroke-dashoffset:9.61;stroke-opacity:1"
       id="rect882"
       width="277.31436"
       height="277.96497"
       x="47.743694"
       y="-67.466751"
       sodipodi:type="rect"
       inkscape:path-effect="#path-effect886"
       d="M 68.910361,-67.466751 H 303.89139 a 21.166667,21.166667 45 0 1 21.16667,21.166667 V 189.33155 a 21.166667,21.166667 135 0 1 -21.16667,21.16666 H 68.910361 A 21.166667,21.166667 45 0 1 47.743694,189.33155 V -46.300084 a 21.166667,21.166667 135 0 1 21.166667,-21.166667 z"
       inkscape:label="rect882" />
    <path
       id="path887"
       style="display:none;opacity:1;fill:#38ff73;fill-opacity:1;stroke:#000000;stroke-width:7.55906;stroke-linejoin:round;stroke-miterlimit:4;stroke-dasharray:none;stroke-dashoffset:36.3213;stroke-opacity:1"
       d="m 696.54688,453.94141 a 83.010194,83.010194 0 0 0 -82.86133,83.00976 83.010194,83.010194 0 0 0 22.16992,56.47266 L 494.74219,840.75781 a 83.010194,83.010194 0 0 0 -19.2461,-2.26367 83.010194,83.010194 0 0 0 -83.01171,83.01172 83.010194,83.010194 0 0 0 83.01171,83.00974 83.010194,83.010194 0 0 0 80.34961,-62.16599 h 281.08594 a 83.010194,83.010194 0 0 0 80.76367,63.82619 83.010194,83.010194 0 0 0 83.00979,-83.00978 83.010194,83.010194 0 0 0 -83.00979,-83.00977 83.010194,83.010194 0 0 0 -19.53125,2.33008 L 757.34766,593.62695 a 83.010194,83.010194 0 0 0 22.35742,-56.67578 83.010194,83.010194 0 0 0 -83.00977,-83.00976 83.010194,83.010194 0 0 0 -0.14843,0 z m -21.50977,163.14453 a 83.010194,83.010194 0 0 0 21.6582,2.87695 83.010194,83.010194 0 0 0 21.39258,-2.80469 l 140.29102,247.93555 a 83.010194,83.010194 0 0 0 -19.32422,31.49609 H 554.67773 a 83.010194,83.010194 0 0 0 -20.07031,-33.36328 z"
       transform="matrix(0.26458333,0,0,0.26458333,36.300113,-78.644826)" />
    <path
       id="path962"
       style="display:inline;opacity:1;fill:#bbe1fa;fill-opacity:1;stroke:#3282b8;stroke-width:0;stroke-linejoin:round;stroke-miterlimit:4;stroke-dasharray:none;stroke-dashoffset:36.3213;stroke-opacity:1"
       d="m 685.9927,454.62514 c -37.34132,4.80715 -66.90199,34.42078 -71.64231,71.77064 l -0.19852,1.84276 -0.15427,2.02165 -0.11002,2.15581 -0.0657,2.24525 -0.0214,2.28995 0.0229,2.28992 0.0673,2.24516 0.11169,2.15566 0.15611,2.02145 0.20055,1.84248 c 1.74357,13.60305 6.83323,26.56776 14.80959,37.72396 l 0.94411,1.50436 0.78847,1.64104 0.62455,1.74597 0.45232,1.81918 0.27181,1.86067 0.083,1.87043 -0.11411,1.84846 -0.31952,1.79477 -0.53321,1.70935 -0.7552,1.5922 -130.62402,228.94912 -0.98574,1.45764 -1.19842,1.32109 -1.37975,1.17593 -1.52976,1.02219 -1.64844,0.85984 -1.73578,0.6889 -1.79179,0.50935 -1.81646,0.32121 -1.8098,0.12447 -1.77182,-0.0809 -1.5652,-0.14057 -1.75708,-0.10921 -1.90804,-0.0763 -2.01812,-0.0418 -2.08729,-0.006 -2.11557,0.0319 -2.10295,0.0711 -2.04942,0.11187 -1.95501,0.1542 -1.81969,0.19811 c -37.40582,4.74631 -67.04544,34.38593 -71.79175,71.79175 l -0.19851,1.84275 -0.1544,2.02163 -0.11028,2.15581 -0.0661,2.24524 -0.022,2.28997 0.0221,2.28996 0.0662,2.24525 0.11033,2.1558 0.15444,2.02163 0.19857,1.84275 c 4.74711,37.40497 34.3864,67.04356 71.79149,71.78975 l 1.84275,0.1985 2.02165,0.1543 2.15581,0.1102 2.24525,0.066 2.28996,0.022 2.28995,-0.023 2.24519,-0.067 2.15572,-0.1111 2.02152,-0.1554 1.84259,-0.1998 c 29.81789,-3.807 55.32389,-23.54084 66.49599,-51.44754 l 0.75841,-1.59907 0.95782,-1.5283 1.13494,-1.43454 1.28975,-1.31781 1.42227,-1.17811 1.5325,-1.01543 1.62042,-0.82977 1.68605,-0.62114 1.72938,-0.38953 1.75042,-0.13495 259.91928,0 1.74763,0.13562 1.72133,0.39153 1.6732,0.62446 1.60326,0.83442 1.51149,1.02138 1.39789,1.18538 1.26246,1.32639 1.10523,1.44441 0.92615,1.53947 0.72526,1.61153 c 10.80884,28.70349 36.69362,49.1598 67.11808,53.0423 l 1.8426,0.1997 2.02153,0.1553 2.15573,0.111 2.2452,0.067 2.28994,0.022 2.28996,-0.022 2.24524,-0.066 2.15581,-0.1102 2.02165,-0.1544 1.84275,-0.1985 c 37.40429,-4.747 67.04258,-34.3853 71.7896,-71.78959 l 0.1985,-1.84275 0.1545,-2.02163 0.1103,-2.1558 0.066,-2.24524 0.022,-2.28997 -0.022,-2.28997 -0.066,-2.24524 -0.1103,-2.1558 -0.1545,-2.02163 -0.1985,-1.84275 c -4.74703,-37.40428 -34.38532,-67.04257 -71.7896,-71.78957 l -1.84276,-0.19851 -2.02165,-0.15426 -2.15581,-0.11 -2.24525,-0.0657 -2.28995,-0.0214 -2.28992,0.0229 -2.24515,0.0673 -2.15567,0.1117 -2.02144,0.15611 -1.84249,0.20054 -1.53468,0.0816 -1.58478,-0.13276 -1.60645,-0.33647 -1.59966,-0.52955 -1.56445,-0.71202 -1.50079,-0.88385 -1.40869,-1.04507 -1.28814,-1.19567 -1.13917,-1.33564 -0.96174,-1.46499 -130.3924,-230.43744 -0.74957,-1.59489 -0.52721,-1.71129 -0.31326,-1.79599 -0.10771,-1.84899 0.0894,-1.87028 0.27818,-1.85988 0.45853,-1.81777 0.63045,-1.74397 0.79399,-1.63845 0.94912,-1.50124 c 8.06803,-11.20572 13.21502,-24.25327 14.9702,-37.94928 l 0.20052,-1.84249 0.15607,-2.02144 0.11166,-2.15567 0.0673,-2.24516 0.0229,-2.28993 -0.0214,-2.28995 -0.0657,-2.24525 -0.11002,-2.15581 -0.15428,-2.02165 -0.19852,-1.84276 c -4.74701,-37.40427 -34.38529,-67.04255 -71.78956,-71.78956 l -1.71002,-0.19731 -1.63619,-0.15422 -1.53675,-0.11638 -1.41168,-0.0838 -1.26101,-0.0565 -1.0847,-0.0344 -0.88279,-0.0176 -0.65525,-0.006 -0.4021,2.2e-4 -0.12333,0.001 z m -0.59087,164.56505 c 0.24614,0.0338 0.49242,0.0665 0.73885,0.0981 l 1.84247,0.20065 2.02145,0.15608 2.15566,0.11149 2.24516,0.0669 2.28989,0.0223 2.2899,-0.0222 2.24516,-0.0668 2.15567,-0.11141 2.02145,-0.15599 1.84248,-0.20057 c 0.15546,-0.0199 0.31085,-0.0403 0.46619,-0.0611 l 1.76543,-0.12588 1.80204,0.0824 1.80766,0.28254 1.78231,0.47461 1.72596,0.65859 1.63864,0.83447 1.52033,1.00227 1.37103,1.16196 1.19076,1.31356 0.9795,1.45707 129.86716,229.51353 0.74724,1.59264 0.52045,1.70483 0.30234,1.78577 0.0929,1.83545 -0.10779,1.85388 -0.2998,1.84105 -0.48314,1.79697 -0.65777,1.72164 -0.8237,1.61505 -0.98095,1.47722 c -3.23811,4.28369 -6.05302,8.87165 -8.40497,13.69905 l -0.87267,1.54993 -1.06705,1.48394 -1.23749,1.39506 -1.38398,1.28331 -1.50653,1.14866 -1.60513,0.99113 -1.67978,0.81071 -1.7305,0.60742 -1.75726,0.38123 -1.76007,0.13216 h -263.2103 l -1.75729,-0.13305 -1.74921,-0.38385 -1.71769,-0.61174 -1.66268,-0.81669 -1.58422,-0.99873 -1.48229,-1.15783 -1.35689,-1.29402 -1.20805,-1.40728 -1.03572,-1.49761 -0.83993,-1.56501 c -2.53524,-5.49393 -5.66371,-10.69445 -9.32935,-15.50836 l -0.98529,-1.47326 -0.82693,-1.61075 -0.65988,-1.71707 -0.48417,-1.79227 -0.29979,-1.8363 -0.10673,-1.84919 0.095,-1.83094 0.30539,-1.78153 0.52445,-1.70099 0.75219,-1.58929 129.94059,-227.75566 0.98467,-1.45362 1.19542,-1.30941 1.37518,-1.15721 1.52391,-0.99702 1.64163,-0.82885 1.72834,-0.6527 1.78403,-0.46854 1.8087,-0.27641 1.80237,-0.0763 z"
       transform="matrix(0.26458333,0,0,0.26458333,36.300113,-78.644826)"
       inkscape:path-effect="#path-effect964"
       inkscape:original-d="m 696.54688,453.94141 a 83.010194,83.010194 0 0 0 -82.86133,83.00976 83.010194,83.010194 0 0 0 22.16992,56.47266 L 494.74219,840.75781 a 83.010194,83.010194 0 0 0 -19.2461,-2.26367 83.010194,83.010194 0 0 0 -83.01171,83.01172 83.010194,83.010194 0 0 0 83.01171,83.00974 83.010194,83.010194 0 0 0 80.34961,-62.16599 h 281.08594 a 83.010194,83.010194 0 0 0 80.76367,63.82619 83.010194,83.010194 0 0 0 83.00979,-83.00978 83.010194,83.010194 0 0 0 -83.00979,-83.00977 83.010194,83.010194 0 0 0 -19.53125,2.33008 L 757.34766,593.62695 a 83.010194,83.010194 0 0 0 22.35742,-56.67578 83.010194,83.010194 0 0 0 -83.00977,-83.00976 83.010194,83.010194 0 0 0 -0.14843,0 z m -21.50977,163.14453 a 83.010194,83.010194 0 0 0 21.6582,2.87695 83.010194,83.010194 0 0 0 21.39258,-2.80469 l 140.29102,247.93555 a 83.010194,83.010194 0 0 0 -19.32422,31.49609 H 554.67773 a 83.010194,83.010194 0 0 0 -20.07031,-33.36328 z" />
  </g>
</svg>
